<?xml version="1.0" encoding="utf-8"?>
<!-- Generator: Adobe Illustrator 28.0.0, SVG Export Plug-In . SVG Version: 6.00 Build 0)  -->
<svg version="1.1" id="Ñëîé_1" xmlns="http://www.w3.org/2000/svg" xmlns:xlink="http://www.w3.org/1999/xlink" x="0px" y="0px"
	 viewBox="0 0 3200 2002" style="enable-background:new 0 0 3200 2002;" xml:space="preserve">
<style type="text/css">
	.st0{fill:none;stroke:#FFFFFF;stroke-width:5.7064;stroke-linecap:round;stroke-linejoin:round;stroke-miterlimit:10;}
	.st1{fill:#6366F1;}
</style>
<path class="st0" d="M2431,712.8c0,117.4,43.6,119.3,45.3,112.5c2.8-11.2-11.7-17.2-30-16.7c-20.9,0.6-35.1,34.5-18.8,34.3
	c12.7-0.2,2.1-34-26.6-34.3c-24.3-0.2-35.7,8.1-27.9,13.3c13.1,8.9,45.2,7.8,47.1-111.3c0.2-11-1.5-20.6-4.2-43.8
	c-0.8-7-40.7-9.6-42.3,0.8c0,89.6-47.6,88.8-47.6,156.5c0,62.5,55.6,85,101,85c45.4,0,87.4-25.9,87.4-85
	c0-63.1-39.3-63.6-39.3-156.5c-1.2-28.3-88.6-19.4-93.9-20.3c-8.7-1.6-5.6-16.6,3.2-16.5c28.1,0.3,76.6,0.6,81.5,0.6
	c5.8,0,5.2-14.5,0.1-14.5c-23.1,0-64.8,0.1-84.2,0c-6.8,0-6.6-12.8-1.2-12.8c51.8,0,86,5.1,86-2.7c0-8.1-3.1-7-18.1-7.5
	c-21.4-0.6-70.9,3.2-73-1c-0.8-1.6-1.9-12.2-0.3-15.8c9.2-20,87.3-20.5,87.3-3.6c-0.1,7.3-1.3,7.9-10.1,8
	c-32.4,0.3-30.3-8.6-30.3-57.6c0-11.9,0-521.2,0-521.2"/>
<path class="st0" d="M2024.2,914.1c0,150.6-56,153.1-58.1,144.4c-3.5-14.4,15.1-22,38.5-21.4c26.9,0.7,45,44.3,24.1,44
	c-16.3-0.3-2.7-43.6,34.2-44c31.2-0.3,45.8,10.4,35.8,17.1c-16.8,11.4-58,10-60.4-142.9c-0.2-14.1,0.3-33.8,1.5-56.2
	c0.5-9,51.7-12.3,53.7,1c0,115,61.1,113.9,61.1,200.8c0,80.2-71.4,109.1-129.7,109.1c-58.3,0-112.1-33.2-112.1-109.1
	c0-80.9,50.4-81.6,50.4-200.8c1.5-36.4,113.7-24.8,120.4-26.1c11.1-2,7.2-21.3-4.1-21.2c-36.1,0.3-98.3,0.7-104.6,0.7
	c-7.5,0-6.6-18.6-0.2-18.6c29.6,0,83.1,0.2,108.1,0c8.8-0.1,8.5-16.4,1.5-16.4c-66.5,0-112.1,7.1-112.1-3c0-10.4,5.8-9.5,24.9-10.1
	c27.4-0.8,86.9,4.1,89.6-1.3c1-2,2.5-15.7,0.4-20.3c-11.8-25.7-109.7-23.4-109.7-1.7c0.1,9.3,3.4,9.7,14.8,9.8
	c41.5,0.4,50-13.4,50-76.3c0-15.3,0-669,0-669"/>
<path class="st0" d="M2586.6,1054.2c0,150.6-56,153.1-58.1,144.4c-3.5-14.4,15.1-22,38.5-21.4c26.9,0.7,45,44.3,24.1,44
	c-16.3-0.3-2.7-43.6,34.2-44c31.2-0.3,45.8,10.4,35.8,17.1c-16.8,11.4-58,10-60.4-142.9c-0.2-14.1,0.3-33.8,1.5-56.2
	c0.5-9,51.7-12.3,53.7,1c0,115,61.1,113.9,61.1,200.8c0,80.2-71.4,109.1-129.7,109.1c-58.3,0-112.1-33.2-112.1-109.1
	c0-80.9,50.4-81.6,50.4-200.8c1.5-36.4,113.7-24.8,120.4-26.1c11.1-2,7.2-21.3-4.1-21.2c-36.1,0.3-98.3,0.7-104.6,0.7
	c-7.5,0-6.6-18.6-0.2-18.6c29.6,0,83.1,0.2,108.1,0c8.8-0.1,8.5-16.4,1.5-16.4c-66.5,0-112.1,7.1-112.1-3c0-10.4,5.8-9.5,24.9-10.1
	c27.4-0.8,86.9,4.1,89.6-1.3c1-2,2.5-15.7,0.4-20.3c-11.8-25.7-109.7-23.4-109.7-1.7c0.1,9.3,3.4,9.7,14.8,9.8
	c41.5,0.4,50-13.4,50-76.3c0-15.3,0-809.1,0-809.1"/>
<g>
	<g>
		<g>
			<path class="st1" d="M2074,1541.4c-5.6-1.3-11.1-0.7-16.2,2.1c-22.2,12.5-43.9,25.7-65.2,39.6c-9.6,7.4-23.8,11.9-27.7,24.5
				c-5.3,17.5,15.2,33.5,30.9,23.7c27-18.3,54.8-35.5,83.2-51.5C2094.8,1571.3,2091.6,1545.5,2074,1541.4z"/>
			<path class="st1" d="M2340.4,1688.9c-12.5-4.7-27.1,4.7-28,18c-0.3,3.7,0.3,7.2,1.9,10.6c5.1,15,10.2,30,15.3,45.1
				c9,26.5,17.9,53,26.9,79.5c12.3,24.8,49,7.9,38.2-17.6c-11.7-34.6-23.5-69.3-35.2-103.9
				C2354.9,1709.1,2353.9,1693.3,2340.4,1688.9z"/>
			<path class="st1" d="M2545.2,1656.8c-2.6-2.1-5.6-3.4-8.8-4.1c-19.4-6.2-38.1-14.6-55.5-25.1c-6.7-4.2-13.3-8.7-19-14.2
				c-4.2-5.8-9.5-11.8-17-12.8c-18.2-3.3-31.4,18.3-20.4,33.2c19.1,24.8,49.1,38.7,77.2,51c13.5,4,29.5,15,42.8,5.3
				C2555.5,1682.4,2555.8,1665.1,2545.2,1656.8z"/>
			<path class="st1" d="M2661,1449.5c-4.4-3.3-9.8-5.4-15.4-4.7c-30,4.1-60.2,6.3-90.5,6.3c-18.6,0.1-37.1-0.8-55.6-2.5
				c-2.9-0.6-5.7-0.5-8.4,0.4c-22,4.3-20.9,37.7,1.2,41c52.3,4.7,105.3,3.8,157.3-3.4C2667.9,1485.2,2675.5,1460.9,2661,1449.5z"/>
			<path class="st1" d="M2162.1,1676.3c-5.1,1.8-10,5.1-12.5,10.2c-13.2,27.2-28.3,53.5-45.1,78.7c-10.3,15.5-21.3,30.4-33,44.8
				c-2.1,2-3.5,4.4-4.3,7.2c-8.7,20.7,19.6,38.4,34.7,21.8c33-40.9,61.8-85.3,84.7-132.6C2195.5,1690.4,2179.5,1670.6,2162.1,1676.3
				z"/>
			<path class="st1" d="M2029.7,1446c18.2,0.3,28.1-23.2,14.9-35.9c-4-3.7-9.2-6.4-14.9-6.2c-48.8,1.9-97.8-1.2-145.7-10.4
				c-26.8-6.8-37.7,32.6-11.2,40.5C1924.4,1443.9,1977.1,1448.1,2029.7,1446z"/>
			<path class="st1" d="M2544.6,1295.8c10.4-6.9,26.2-9.7,29.8-23.2c5.1-17.8-14.8-33.1-30.9-23.7c-30.4,15.4-59.5,33.3-87.1,53.5
				c-9.8,5.4-13.4,19.2-7.5,28.7c5.4,9.6,19.3,13.7,28.7,7.5C2499.1,1322.9,2521.5,1308.6,2544.6,1295.8z"/>
			<path class="st1" d="M2116.7,1304.9c-27.7-27.5-56-54.4-85-80.5c-13.3-12.7-36.7-1.8-35.2,16.6c0.5,5.4,2.6,10.6,6.8,14.3
				c29,26.1,57.3,53,85,80.5C2109.2,1353.9,2136.5,1324.5,2116.7,1304.9z"/>
		</g>
	</g>
	<path class="st1" d="M2290.1,1611c-39.2,0-77.2-10.6-104.2-29.2c-32.6-22.4-49.1-55.1-49.1-97.3c0-48.3,15.5-73.4,33.4-102.4
		c19.9-32.3,42.3-68.5,46.1-139.2c0.5-8.5,7.7-15,16.2-14.6c25.9,1.3,77.1,4.7,101.3,7.1c11.8,1.2,20.9,10.7,21.8,22.4
		c4.9,65.1,22.5,99.7,38.3,130.7c14.2,27.9,26.5,51.9,26.5,95.8C2420.5,1577.8,2353.1,1611,2290.1,1611z"/>
	<path class="st0" d="M2287.2,1283.8c0,209.4,77.8,212.9,80.8,200.8c4.9-20-21-30.7-53.5-29.8c-37.3,1-62.6,61.6-33.5,61.1
		c22.7-0.4,3.7-60.6-47.5-61.1c-43.4-0.4-63.6,14.4-49.8,23.8c23.4,15.9,80.6,13.9,84-198.7c0.3-19.6-2.7-36.8-7.5-78.1
		c-1.4-12.4-72.7-17.1-75.4,1.4c0,159.8-85,158.4-85,279.3c0,111.6,99.3,151.7,180.3,151.7c81,0,155.9-46.2,155.9-151.7
		c0-112.5-70.1-113.5-70.1-279.3c-2.1-50.6-158-34.5-167.5-36.2c-15.5-2.8-10-29.6,5.8-29.5c50.2,0.5,136.7,1,145.5,1
		c10.4,0,9.2-25.8,0.3-25.8c-41.2,0-115.6,0.2-150.3,0c-12.2-0.1-11.8-22.8-2.1-22.8c92.5,0,153.5,9.2,153.5-4.9
		c0-14.4-5.6-12.6-32.2-13.3c-38.1-1-120.7,5.7-124.5-1.8c-1.4-2.8-1.3-21.7,1.4-28.2c13.8-32.9,148.4-21.9,148.4-1.7
		c-0.1,13-2.4,14.2-18.1,14.3c-57.7,0.5-54.5-20-54.5-107.5c0-21.3,0-944.1,0-944.1"/>
</g>
</svg>
